grf.mot
version=1
nRows=20
nColumns=31
inDegrees=yes
endheader
time	ground_force_vx	ground_force_vy	ground_force_vz	ground_force_px	ground_force_py	ground_force_pz	1_ground_force_vx	1_ground_force_vy	1_ground_force_vz	1_ground_force_px	1_ground_force_py	1_ground_force_pz	ground_torque_x	ground_torque_y	ground_torque_z	1_ground_torque_x	1_ground_torque_y	1_ground_torque_z	apo_force_vx	apo_force_vy	apo_force_vz	apo_force_px	apo_force_py	apo_force_pz	1_apo_force_vx	1_apo_force_vy	1_apo_force_vz	1_apo_force_px	1_apo_force_py	1_apo_force_pz	
1.24530000000000	36.84100000000000	87.47850000000000	5.61538000000000	-0.21967200000000	0.00000000000000	0.03698800000000	-153.55500000000001	866.44299999999998	57.96910000000000	0.16558900000000	0.00000000000000	-0.12096200000000	0.00000000000000	-1.00824000000000	0.00000000000000	0.00000000000000	7.89017000000000	0.00000000000000	18.76100000000000	-1.58140000000000	0.00000000000000	0.00000000000000	-0.35000000000000	0.00000000000000	-19.88200000000000	-13.95800000000000	0.00000000000000	0.00000000000000	-0.35000000000000	0.00000000000000	
1.25030000000000	26.86620000000000	60.15270000000000	5.93776000000000	-0.19851800000000	0.00000000000000	0.03309490000000	-152.52500000000001	880.92300000000000	60.91200000000000	0.15851300000000	0.00000000000000	-0.12008700000000	0.00000000000000	-0.89433800000000	0.00000000000000	0.00000000000000	8.08233000000000	0.00000000000000	19.73400000000000	-1.30990000000000	0.00000000000000	0.00000000000000	-0.35000000000000	0.00000000000000	-20.56400000000000	-14.23500000000000	0.00000000000000	0.00000000000000	-0.35000000000000	0.00000000000000	
1.25530000000000	17.72370000000000	36.46450000000000	6.04822000000000	-0.17696600000000	0.00000000000000	0.02922260000000	-150.60400000000001	893.11199999999997	63.55340000000000	0.15137300000000	0.00000000000000	-0.11940500000000	0.00000000000000	-0.78241500000000	0.00000000000000	0.00000000000000	8.23280000000000	0.00000000000000	20.98600000000000	-1.00800000000000	0.00000000000000	0.00000000000000	-0.35000000000000	0.00000000000000	-21.42300000000000	-14.60800000000000	0.00000000000000	0.00000000000000	-0.35000000000000	0.00000000000000	
1.26030000000000	0.00000000000000	0.00000000000000	0.00000000000000	0.00000000000000	0.00000000000000	0.00000000000000	-147.84399999999999	902.96400000000006	65.88560000000000	0.14420600000000	0.00000000000000	-0.11893200000000	0.00000000000000	0.00000000000000	0.00000000000000	0.00000000000000	8.34095000000000	0.00000000000000	24.66200000000000	-0.72333000000000	0.00000000000000	0.00000000000000	-0.35000000000000	0.00000000000000	-24.05300000000000	-16.14000000000000	0.00000000000000	0.00000000000000	-0.35000000000000	0.00000000000000	
1.26530000000000	0.00000000000000	0.00000000000000	0.00000000000000	0.00000000000000	0.00000000000000	0.00000000000000	-144.31200000000001	910.45500000000004	67.90680000000000	0.13704600000000	0.00000000000000	-0.11867400000000	0.00000000000000	0.00000000000000	0.00000000000000	0.00000000000000	8.40685000000000	0.00000000000000	24.87100000000000	-0.25681000000000	0.00000000000000	0.00000000000000	-0.35000000000000	0.00000000000000	-24.10600000000000	-15.90300000000000	0.00000000000000	0.00000000000000	-0.35000000000000	0.00000000000000	
1.27030000000000	0.00000000000000	0.00000000000000	0.00000000000000	0.00000000000000	0.00000000000000	0.00000000000000	-140.07800000000000	915.57899999999995	69.62009999999999	0.12992000000000	0.00000000000000	-0.11863400000000	0.00000000000000	0.00000000000000	0.00000000000000	0.00000000000000	8.43133000000000	0.00000000000000	25.13000000000000	0.22426000000000	0.00000000000000	0.00000000000000	-0.35000000000000	0.00000000000000	-24.21900000000000	-15.69400000000000	0.00000000000000	0.00000000000000	-0.35000000000000	0.00000000000000	
1.27530000000000	0.00000000000000	0.00000000000000	0.00000000000000	0.00000000000000	0.00000000000000	0.00000000000000	-135.22200000000001	918.35000000000002	71.03400000000001	0.12285400000000	0.00000000000000	-0.11880300000000	0.00000000000000	0.00000000000000	0.00000000000000	0.00000000000000	8.41588000000000	0.00000000000000	25.44400000000000	0.72185000000000	0.00000000000000	0.00000000000000	-0.35000000000000	0.00000000000000	-24.38300000000000	-15.50900000000000	0.00000000000000	0.00000000000000	-0.35000000000000	0.00000000000000	
1.28030000000000	0.00000000000000	0.00000000000000	0.00000000000000	0.00000000000000	0.00000000000000	0.00000000000000	-129.82800000000000	918.80399999999997	72.16080000000000	0.11586700000000	0.00000000000000	-0.11916900000000	0.00000000000000	0.00000000000000	0.00000000000000	0.00000000000000	8.36268000000000	0.00000000000000	25.82000000000000	1.23850000000000	0.00000000000000	0.00000000000000	-0.35000000000000	0.00000000000000	-24.61100000000000	-15.35300000000000	0.00000000000000	0.00000000000000	-0.35000000000000	0.00000000000000	
1.28530000000000	0.00000000000000	0.00000000000000	0.00000000000000	0.00000000000000	0.00000000000000	0.00000000000000	-123.98200000000000	917.00099999999998	73.01620000000000	0.10897700000000	0.00000000000000	-0.11971300000000	0.00000000000000	0.00000000000000	0.00000000000000	0.00000000000000	8.27447000000000	0.00000000000000	26.26700000000000	1.77760000000000	0.00000000000000	0.00000000000000	-0.35000000000000	0.00000000000000	-24.91400000000000	-15.23300000000000	0.00000000000000	0.00000000000000	-0.35000000000000	0.00000000000000	
1.29030000000000	0.00000000000000	0.00000000000000	0.00000000000000	0.00000000000000	0.00000000000000	0.00000000000000	-117.76900000000001	913.01900000000001	73.61890000000000	0.10219800000000	0.00000000000000	-0.12041300000000	0.00000000000000	0.00000000000000	0.00000000000000	0.00000000000000	8.15455000000000	0.00000000000000	26.79300000000000	2.34320000000000	0.00000000000000	0.00000000000000	-0.35000000000000	0.00000000000000	-25.30500000000000	-15.15500000000000	0.00000000000000	0.00000000000000	-0.35000000000000	0.00000000000000	
1.29530000000000	0.00000000000000	0.00000000000000	0.00000000000000	0.00000000000000	0.00000000000000	0.00000000000000	-111.27800000000001	906.96199999999999	73.98950000000001	0.09554200000000	0.00000000000000	-0.12124000000000	0.00000000000000	0.00000000000000	0.00000000000000	0.00000000000000	8.00662000000000	0.00000000000000	27.40200000000000	2.93960000000000	0.00000000000000	0.00000000000000	-0.35000000000000	0.00000000000000	-25.79000000000000	-15.11900000000000	0.00000000000000	0.00000000000000	-0.35000000000000	0.00000000000000	
1.30030000000000	0.00000000000000	0.00000000000000	0.00000000000000	0.00000000000000	0.00000000000000	0.00000000000000	-104.59000000000000	898.95399999999995	74.14950000000000	0.08901660000000	0.00000000000000	-0.12216800000000	0.00000000000000	0.00000000000000	0.00000000000000	0.00000000000000	7.83476000000000	0.00000000000000	28.11200000000000	3.57340000000000	0.00000000000000	0.00000000000000	-0.35000000000000	0.00000000000000	-26.38800000000000	-15.13500000000000	0.00000000000000	0.00000000000000	-0.35000000000000	0.00000000000000	
1.30530000000000	0.00000000000000	0.00000000000000	0.00000000000000	0.00000000000000	0.00000000000000	0.00000000000000	-97.78560000000000	889.13900000000001	74.12110000000000	0.08262820000000	0.00000000000000	-0.12316500000000	0.00000000000000	0.00000000000000	0.00000000000000	0.00000000000000	7.64326000000000	0.00000000000000	28.88700000000000	4.24430000000000	0.00000000000000	0.00000000000000	-0.35000000000000	0.00000000000000	-27.07400000000000	-15.18300000000000	0.00000000000000	0.00000000000000	-0.35000000000000	0.00000000000000	
1.31030000000000	0.00000000000000	0.00000000000000	0.00000000000000	0.00000000000000	0.00000000000000	0.00000000000000	-90.93920000000000	877.67999999999995	73.92590000000000	0.07637990000000	0.00000000000000	-0.12420000000000	0.00000000000000	0.00000000000000	0.00000000000000	0.00000000000000	7.43654000000000	0.00000000000000	29.70500000000000	4.95200000000000	0.00000000000000	0.00000000000000	-0.35000000000000	0.00000000000000	-27.83000000000000	-15.25200000000000	0.00000000000000	0.00000000000000	-0.35000000000000	0.00000000000000	
1.31530000000000	0.00000000000000	0.00000000000000	0.00000000000000	0.00000000000000	0.00000000000000	0.00000000000000	-84.11910000000000	864.75699999999995	73.58480000000000	0.07027250000000	0.00000000000000	-0.12524500000000	0.00000000000000	0.00000000000000	0.00000000000000	0.00000000000000	7.21907000000000	0.00000000000000	30.54300000000000	5.69410000000000	0.00000000000000	0.00000000000000	-0.35000000000000	0.00000000000000	-28.64100000000000	-15.33200000000000	0.00000000000000	0.00000000000000	-0.35000000000000	0.00000000000000	
1.32030000000000	0.00000000000000	0.00000000000000	0.00000000000000	0.00000000000000	0.00000000000000	0.00000000000000	-77.38679999999999	850.56299999999999	73.11700000000000	0.06430410000000	0.00000000000000	-0.12627000000000	0.00000000000000	0.00000000000000	0.00000000000000	0.00000000000000	6.99520000000000	0.00000000000000	31.37400000000000	6.46540000000000	0.00000000000000	0.00000000000000	-0.35000000000000	0.00000000000000	-29.48100000000000	-15.40600000000000	0.00000000000000	0.00000000000000	-0.35000000000000	0.00000000000000	
1.32530000000000	0.00000000000000	0.00000000000000	0.00000000000000	0.00000000000000	0.00000000000000	0.00000000000000	-70.79630000000000	835.30399999999997	72.53980000000000	0.05846980000000	0.00000000000000	-0.12725100000000	0.00000000000000	0.00000000000000	0.00000000000000	0.00000000000000	6.76909000000000	0.00000000000000	32.16200000000000	7.25650000000000	0.00000000000000	0.00000000000000	-0.35000000000000	0.00000000000000	-30.31900000000000	-15.45800000000000	0.00000000000000	0.00000000000000	-0.35000000000000	0.00000000000000	
1.33030000000000	0.00000000000000	0.00000000000000	0.00000000000000	0.00000000000000	0.00000000000000	0.00000000000000	-64.39410000000000	819.19299999999998	71.86820000000000	0.05276230000000	0.00000000000000	-0.12816400000000	0.00000000000000	0.00000000000000	0.00000000000000	0.00000000000000	6.54463000000000	0.00000000000000	32.86100000000000	8.05340000000000	0.00000000000000	0.00000000000000	-0.35000000000000	0.00000000000000	-31.11400000000000	-15.46700000000000	0.00000000000000	0.00000000000000	-0.35000000000000	0.00000000000000	
1.33530000000000	0.00000000000000	0.00000000000000	0.00000000000000	0.00000000000000	0.00000000000000	0.00000000000000	-58.21890000000000	802.44600000000003	71.11470000000000	0.04717120000000	0.00000000000000	-0.12899200000000	0.00000000000000	0.00000000000000	0.00000000000000	0.00000000000000	6.32529000000000	0.00000000000000	33.42300000000000	8.83730000000000	0.00000000000000	0.00000000000000	-0.35000000000000	0.00000000000000	-31.81700000000000	-15.41300000000000	0.00000000000000	0.00000000000000	-0.35000000000000	0.00000000000000	
1.34030000000000	0.00000000000000	0.00000000000000	0.00000000000000	0.00000000000000	0.00000000000000	0.00000000000000	-52.30150000000000	785.28300000000002	70.28900000000000	0.04168330000000	0.00000000000000	-0.12971900000000	0.00000000000000	0.00000000000000	0.00000000000000	0.00000000000000	6.11412000000000	0.00000000000000	33.79800000000000	9.58560000000000	0.00000000000000	0.00000000000000	-0.35000000000000	0.00000000000000	-32.37900000000000	-15.27400000000000	0.00000000000000	0.00000000000000	-0.35000000000000	0.00000000000000	
